<?xml version="1.0" encoding="utf-8"?>
<!-- Generated by IcoMoon.io -->
<svg version="1.1" xmlns="http://www.w3.org/2000/svg" xmlns:xlink="http://www.w3.org/1999/xlink" width="752" height="68" viewBox="0 0 752 68">
<svg id="icon-lock-closed" width="20" height="20" viewBox="0 0 20 20" x="0" y="0">
<path d="M4 8v-2c0-3.314 2.686-6 6-6s6 2.686 6 6v0 2h1c1.105 0 2 0.895 2 2v0 8c0 1.105-0.895 2-2 2v0h-14c-1.105 0-2-0.895-2-2v0-8c0-1.1 0.9-2 2-2h1zM9 14.73v2.27h2v-2.27c0.602-0.352 1-0.996 1-1.732 0-1.105-0.895-2-2-2s-2 0.895-2 2c0 0.736 0.398 1.38 0.991 1.727l0.009 0.005zM7 6v2h6v-2c0-1.657-1.343-3-3-3s-3 1.343-3 3v0z"></path>
</svg>
<svg id="icon-apple" width="32" height="32" viewBox="0 0 32 32" x="0" y="36">
<path fill="#999" d="M9.437 31.4c-0.631-0.421-1.191-0.937-1.659-1.533-0.511-0.617-0.984-1.267-1.419-1.939-1.021-1.493-1.82-3.127-2.373-4.848-0.667-2.003-0.991-3.92-0.991-5.796 0-2.093 0.453-3.92 1.336-5.453 0.653-1.2 1.627-2.204 2.8-2.909 1.133-0.707 2.453-1.093 3.787-1.12 0.467 0 0.973 0.067 1.507 0.2 0.387 0.107 0.853 0.28 1.427 0.493 0.733 0.28 1.133 0.453 1.267 0.493 0.427 0.16 0.787 0.227 1.067 0.227 0.213 0 0.52-0.067 0.86-0.173 0.193-0.067 0.56-0.187 1.080-0.413 0.515-0.187 0.923-0.347 1.247-0.467 0.493-0.147 0.971-0.28 1.4-0.347 0.52-0.080 1.036-0.107 1.531-0.067 0.947 0.067 1.813 0.267 2.587 0.56 1.36 0.547 2.457 1.4 3.276 2.613-0.347 0.213-0.667 0.461-0.967 0.733-0.649 0.573-1.2 1.253-1.64 2.007-0.573 1.027-0.867 2.187-0.859 3.36 0.020 1.444 0.387 2.713 1.12 3.813 0.516 0.8 1.205 1.485 2.045 2.048 0.413 0.28 0.776 0.473 1.12 0.6-0.16 0.5-0.336 0.987-0.54 1.467-0.463 1.076-1.013 2.107-1.667 3.080-0.576 0.84-1.029 1.467-1.373 1.88-0.536 0.64-1.053 1.12-1.573 1.463-0.573 0.38-1.247 0.581-1.936 0.581-0.467 0.020-0.933-0.040-1.379-0.169-0.387-0.127-0.768-0.269-1.141-0.431-0.391-0.179-0.795-0.331-1.207-0.453-0.507-0.133-1.027-0.197-1.552-0.196-0.533 0-1.053 0.067-1.547 0.193-0.413 0.117-0.813 0.261-1.209 0.433-0.56 0.233-0.927 0.387-1.14 0.453-0.432 0.128-0.875 0.205-1.32 0.233-0.693 0-1.339-0.2-1.964-0.617zM18.576 6.787c-0.907 0.453-1.768 0.645-2.631 0.581-0.133-0.861 0-1.747 0.36-2.716 0.32-0.827 0.747-1.573 1.333-2.24 0.613-0.693 1.347-1.267 2.173-1.68 0.88-0.453 1.72-0.693 2.52-0.733 0.107 0.907 0 1.8-0.333 2.76-0.304 0.853-0.757 1.64-1.333 2.347-0.58 0.693-1.3 1.267-2.089 1.681z"></path>
</svg>
<svg id="icon-hipchat" width="32" height="32" viewBox="0 0 32 32" x="48" y="36">
<path fill="#0052cc" d="M26.315 25.408c0 0 0.137-0.097 0.356-0.264 3.276-2.533 5.329-6.207 5.329-10.292 0-7.62-7.164-13.803-15.996-13.803-8.835 0-16.004 6.183-16.004 13.803 0 7.623 7.161 13.808 15.997 13.808 1.129 0 2.259-0.097 3.365-0.304l0.349-0.060c2.244 1.456 5.519 2.653 8.384 2.653 0.887 0 1.304-0.728 0.736-1.472-0.864-1.060-2.055-2.757-2.517-4.069zM24.365 19.373c-0.955 1.425-3.912 3.852-8.339 3.852h-0.061c-4.437 0-7.391-2.441-8.339-3.852-0.185-0.207-0.315-0.468-0.363-0.756l-0.001-0.009c-0.001-0.015-0.002-0.033-0.002-0.050 0-0.341 0.262-0.622 0.595-0.651l0.002-0c0.011-0.004 0.019-0.004 0.028-0.004 0.156 0.008 0.307 0.057 0.437 0.148 2.073 1.701 4.751 2.735 7.671 2.741h0.001c0.040 0 0.087 0.001 0.134 0.001 2.881 0 5.52-1.038 7.563-2.761l-0.018 0.014c0.109-0.101 0.256-0.163 0.417-0.163 0 0 0.001 0 0.001 0h-0c0.356 0 0.637 0.284 0.644 0.633-0.043 0.328-0.171 0.62-0.36 0.861l0.003-0.004z"></path>
</svg>
<svg id="icon-letsencrypt" width="32" height="32" viewBox="0 0 32 32" x="96" y="36">
<path fill="#003a70" d="M24.263 32h-16.524c-0.707-0.002-1.28-0.575-1.283-1.282v-12.224c0-0.705 0.577-1.283 1.283-1.283h1.552v-1.976c0-3.7 3.011-6.709 6.709-6.709s6.709 3.011 6.709 6.709v1.976h1.552c0.705 0 1.283 0.577 1.283 1.283v12.224c-0.002 0.707-0.574 1.28-1.281 1.283h-0zM16.837 25.237c0.52-0.297 0.865-0.848 0.865-1.48 0-0.938-0.761-1.699-1.699-1.699-0.001 0-0.003 0-0.004 0h0c-0.938 0.001-1.699 0.762-1.699 1.7 0 0.63 0.343 1.181 0.853 1.474l0.008 0.004v1.656c0 0.462 0.375 0.837 0.837 0.837s0.837-0.375 0.837-0.837v0zM13.139 17.211h5.724v-1.976c0-1.577-1.284-2.861-2.861-2.861s-2.861 1.284-2.861 2.861zM6.063 15.389h-3.987c-0.647 0-1.171-0.524-1.171-1.171s0.524-1.171 1.171-1.171h3.987c0.647 0 1.171 0.524 1.171 1.171s-0.524 1.171-1.171 1.171v0zM8.872 9.117c-0.001 0-0.002 0-0.003 0-0.282 0-0.541-0.101-0.742-0.268l0.002 0.002-3.153-2.593c-0.262-0.216-0.427-0.541-0.427-0.905 0-0.647 0.524-1.171 1.171-1.171 0.283 0 0.543 0.101 0.746 0.268l-0.002-0.002 3.153 2.593c0.262 0.216 0.428 0.541 0.428 0.905 0 0.647-0.524 1.171-1.171 1.171-0.001 0-0.002 0-0.003 0h0zM16 6.36c-0.647 0-1.171-0.524-1.171-1.171v0-4.019c0-0.647 0.524-1.171 1.171-1.171s1.171 0.524 1.171 1.171v4.019c0 0.647-0.524 1.171-1.171 1.171v0zM23.128 9.117c-0.002 0-0.003 0-0.005 0-0.646 0-1.169-0.524-1.169-1.169 0-0.364 0.166-0.689 0.427-0.904l0.002-0.002 3.153-2.593c0.201-0.166 0.461-0.267 0.744-0.267 0.647 0 1.171 0.524 1.171 1.171 0 0.363-0.166 0.688-0.425 0.903l-0.002 0.002-3.153 2.593c-0.2 0.165-0.459 0.265-0.741 0.265-0 0-0.001 0-0.002 0h0zM29.924 15.389h-4.025c-0.647 0-1.171-0.524-1.171-1.171s0.524-1.171 1.171-1.171h4.025c0.647 0 1.171 0.524 1.171 1.171s-0.524 1.171-1.171 1.171v0z"></path>
</svg>
</svg>
